<svg width="351" height="287" viewBox="0 0 351 287" fill="none" xmlns="http://www.w3.org/2000/svg">
<g clip-path="url(#clip0_39_329)">
<path d="M196.277 287L40.2045 196.953L183.012 114.613L339.084 204.659L196.277 287Z" fill="white" fill-opacity="0.33"/>
<path d="M197.676 240.835L28.3053 143.116L181.612 54.7235L351 152.442L197.676 240.835Z" fill="white"/>
<path d="M28.3053 143.116V161.562L197.676 258.513V240.835L28.3053 143.116Z" fill="#C6C6C6"/>
<path d="M197.676 240.835V258.513L351 170.12V152.442L197.676 240.835Z" fill="#E0E0DE"/>
<path d="M28.3565 143.219L11.8821 95.7235L165.359 7.24536L181.765 54.7576L28.3565 143.219Z" fill="#EBEBEB"/>
<path d="M28.3566 143.219L17.0891 136.706L0 88.8702L11.8821 95.7235L28.3566 143.219Z" fill="#B2B2B2"/>
<path d="M0 88.8703L152.436 0L165.359 7.24532L11.8821 95.7235L0 88.8703Z" fill="#D9DCDD"/>
<path d="M17.4646 98.9967L162.662 15.5135L176.593 52.3709L30.5417 135.888L17.4646 98.9967Z" fill="#3C3C3B"/>
<path d="M176.593 52.3709L162.662 15.5135L160.528 16.741L173.81 51.9106L29.9272 134.183L30.5418 135.888L176.593 52.3709Z" fill="#303030"/>
<g opacity="0.4">
<path d="M69.8244 83.6367L70.3537 84.796C71.2243 86.7053 71.2414 88.2908 70.3195 89.5864L70.3537 89.6375C71.9414 89.5523 73.2559 90.6263 74.2632 92.8425L74.9631 94.3598C76.3972 97.4625 75.8167 100.139 73.3242 101.571C70.8488 103.003 68.5953 102.048 67.1954 98.9968L66.632 97.7523L68.9026 96.2521L69.3635 97.2579C70.1147 98.8945 70.9512 99.3718 71.9584 98.7752C72.9998 98.1785 73.1193 97.0533 72.4194 95.5531L71.7024 94.0018C70.8829 92.2118 69.9781 91.7174 68.7318 92.4334L67.7246 93.013L66.4271 90.1831L67.4344 89.6034C68.5611 88.9556 68.6977 87.9328 67.9124 86.228L67.4173 85.1369C66.7515 83.7049 65.8808 83.1764 64.9419 83.7219C64.0029 84.2675 63.8834 85.2903 64.6346 86.9269L65.0955 87.9328L62.6884 89.1431L62.125 87.8987C60.7251 84.8471 61.3055 82.2558 63.7127 80.8579C66.1198 79.46 68.3733 80.4999 69.8074 83.6026L69.8244 83.6367Z" fill="white"/>
<path d="M81.57 96.0986L81.8773 100.361L80.614 101.094L79.9652 97.3942L79.1458 97.8716L77.6605 94.6495L80.2384 93.1664L81.5871 96.0986H81.57Z" fill="white"/>
<path d="M87.5964 92.9789L85.1551 94.3939L78.019 78.8974L74.6558 80.8408L73.6827 78.7099C75.5607 77.4142 76.8069 75.6242 76.602 73.8171L78.3092 72.8284L87.5793 92.9789H87.5964Z" fill="white"/>
<path d="M93.6399 80.5169L94.7666 79.8691L96.0641 82.682L94.9373 83.3298L96.9006 87.5918L94.4593 89.0067L92.496 84.7448L87.3915 87.694L86.2306 85.1539L85.2063 68.8221L87.6134 67.4242L93.6228 80.4999L93.6399 80.5169ZM87.8525 74.7548L88.5012 83.5003L91.2156 81.9319L87.9037 74.7377L87.8525 74.7718V74.7548Z" fill="white"/>
<path d="M104.685 83.0911L102.244 84.506L95.1251 69.0096L91.7619 70.953L90.7888 68.822C92.6667 67.5264 93.913 65.7364 93.7081 63.9293L95.4153 62.9406L104.685 83.0911Z" fill="white"/>
<path d="M104.805 77.2778L104.446 76.4936L106.717 74.9934L106.973 75.5389C107.724 77.1755 108.578 77.6358 109.551 77.0732C110.558 76.4936 110.678 75.3684 109.995 73.8682L108.424 70.4757C107.741 68.9755 106.819 68.447 105.829 69.0267C105.01 69.504 104.754 70.4075 105.163 71.5668L105.334 71.993L103.029 73.1863L98.2151 61.3551L104.788 57.5535L106.119 60.4346L101.681 62.9917L103.661 67.8674L103.712 67.8333C103.832 67.1514 104.242 66.4013 105.215 65.8387C107.246 64.6624 109.329 65.7194 110.78 68.8903L112.521 72.6919C113.955 75.7946 113.358 78.4882 110.917 79.8861C108.475 81.284 106.205 80.3464 104.805 77.2948V77.2778Z" fill="white"/>
<path d="M114.263 71.9077L113.853 71.0212L116.124 69.521L116.448 70.237C117.148 71.7543 117.95 72.2146 118.906 71.652C119.862 71.0894 120.067 70.1177 119.419 68.7368L117.506 64.5601L117.455 64.5942C117.336 65.3955 116.858 66.3331 115.85 66.9127C114.058 67.9526 111.89 67.1514 110.37 63.8441L109.107 61.1165C107.656 57.9456 108.253 55.1497 110.695 53.7518C113.085 52.3709 115.475 53.4279 116.926 56.5988L121.877 67.373C123.277 70.4246 122.662 73.067 120.255 74.4649C117.848 75.8628 115.663 74.9763 114.246 71.9248L114.263 71.9077ZM115.663 60.5368L114.502 58.0308C113.819 56.5306 112.914 56.0362 111.975 56.5817C111.036 57.1273 110.883 58.2354 111.565 59.7356L112.726 62.2416C113.409 63.7418 114.314 64.2362 115.253 63.6907C116.192 63.1451 116.363 62.037 115.663 60.5368Z" fill="white"/>
<path d="M125.838 50.8196L126.179 51.5697C127.084 53.5302 127.408 55.4907 127.289 59.497L127.084 66.5036L131.796 63.776L133.127 66.657L125.633 70.9872L124.438 68.3959L124.694 59.0196C124.779 56.1044 124.438 54.502 123.687 52.8483L123.499 52.4392C122.884 51.1094 122.116 50.6832 121.211 51.2117C120.306 51.7232 120.17 52.6949 120.955 54.3826L121.416 55.3884L119.009 56.5988L118.377 55.218C117.011 52.2516 117.626 49.7115 119.965 48.3647C122.304 47.018 124.489 47.9044 125.838 50.8026V50.8196Z" fill="white"/>
<path d="M135.33 45.5177L135.739 46.4042L133.452 47.9044L133.127 47.1884C132.427 45.6711 131.625 45.2108 130.669 45.7734C129.696 46.336 129.508 47.3077 130.157 48.6886L132.086 52.8653L132.137 52.8312C132.257 52.03 132.735 51.0923 133.742 50.5127C135.534 49.4728 137.703 50.257 139.222 53.5813L140.485 56.326C141.936 59.4969 141.339 62.2757 138.898 63.6907C136.508 65.0715 134.118 64.0146 132.666 60.8437L127.716 50.0695C126.316 47.0179 126.93 44.3755 129.337 42.9776C131.745 41.5796 133.93 42.4661 135.347 45.5177H135.33ZM133.93 56.9056L135.091 59.4117C135.773 60.9119 136.678 61.4063 137.617 60.8607C138.556 60.3152 138.71 59.2071 138.027 57.7069L136.866 55.2009C136.183 53.7006 135.278 53.2063 134.339 53.7518C133.4 54.2973 133.23 55.4054 133.93 56.9056Z" fill="white"/>
<path d="M142.21 55.6612L141.851 54.877L144.139 53.3768L144.395 53.9223C145.146 55.5589 146 56.0192 146.973 55.4566C147.98 54.877 148.1 53.7518 147.417 52.2516L145.846 48.8591C145.163 47.3589 144.241 46.8304 143.251 47.41C142.415 47.8874 142.176 48.7909 142.585 49.9502L142.756 50.3593L140.451 51.5526L135.637 39.7215L142.21 35.9198L143.541 38.8009L139.103 41.3581L141.083 46.2337L141.134 46.1996C141.254 45.5177 141.663 44.7676 142.636 44.205C144.668 43.0287 146.751 44.0857 148.202 47.2566L149.943 51.0583C151.377 54.161 150.78 56.8545 148.339 58.2524C145.897 59.6674 143.627 58.7127 142.227 55.6612H142.21Z" fill="white"/>
<path d="M153.938 35.0333L154.467 36.1926C155.338 38.1019 155.355 39.6874 154.433 40.983L154.467 41.0341C156.055 40.9489 157.37 42.0229 158.377 44.2391L159.077 45.7564C160.511 48.8591 159.93 51.5356 157.438 52.9676C154.945 54.3996 152.709 53.4449 151.309 50.3934L150.746 49.1489L153.033 47.6487L153.494 48.6545C154.245 50.2911 155.082 50.7684 156.089 50.1718C157.131 49.5751 157.25 48.4499 156.55 46.9497L155.833 45.3984C155.014 43.6084 154.109 43.114 152.863 43.83L151.855 44.4096L150.558 41.5797L151.565 41C152.692 40.3522 152.828 39.3294 152.043 37.6246L151.548 36.5335C150.882 35.1015 150.012 34.5901 149.073 35.1185C148.134 35.6641 148.014 36.6869 148.765 38.3235L149.226 39.3294L146.819 40.5398L146.256 39.2953C144.856 36.2437 145.436 33.6524 147.843 32.2545C150.251 30.8566 152.504 31.8965 153.938 34.9992V35.0333Z" fill="white"/>
</g>
<path d="M40.0338 142.997L70.5927 160.625L101.169 142.997L70.5927 125.37L40.0338 142.997Z" fill="#6FEBF4"/>
<path d="M68.2196 137.78L79.1286 148.998L76.7727 150.379L66.1369 139.298L61.3908 142.077L58.7959 140.576L65.8808 136.434L68.2367 137.78H68.2196Z" fill="white"/>
<path d="M76.7727 121.807L107.349 139.434L137.925 121.807L107.349 104.196L76.7727 121.807Z" fill="#6FEBF4"/>
<path d="M107.4 117.153L108.407 117.732C110.063 118.687 110.609 119.642 110.046 120.579L110.097 120.613C111.856 120.255 113.717 120.647 115.612 121.739L116.943 122.506C119.641 124.057 119.845 125.813 117.455 127.194C115.082 128.592 112.078 128.489 109.38 126.921L108.049 126.154C106.154 125.063 105.454 123.989 106.068 122.949L106.017 122.915C104.395 123.256 102.756 122.932 101.1 121.994L100.093 121.415C97.3957 119.863 97.1567 118.141 99.4444 116.795C101.732 115.448 104.703 115.584 107.4 117.136V117.153ZM102.415 120.102L103.695 120.835C104.89 121.534 106.068 121.619 106.939 121.125C107.81 120.613 107.622 119.931 106.427 119.25L105.146 118.516C103.951 117.818 102.773 117.732 101.903 118.227C101.032 118.738 101.22 119.42 102.415 120.102ZM109.909 124.568L111.48 125.472C112.778 126.222 114.058 126.307 114.997 125.762C115.919 125.216 115.765 124.466 114.468 123.716L112.897 122.813C111.6 122.062 110.302 121.977 109.38 122.523C108.458 123.068 108.612 123.818 109.909 124.568Z" fill="white"/>
<path d="M113.221 100.804L143.797 118.431L174.373 100.804L143.797 83.1764L113.221 100.804Z" fill="#6FEBF4"/>
<path d="M146.256 105.85L145.487 105.407L147.57 104.043L148.202 104.401C149.534 105.168 150.592 105.27 151.497 104.742C152.402 104.213 152.282 103.583 151.07 102.901L147.451 100.804L147.4 100.838C147.536 101.332 147.314 101.997 146.358 102.543C144.668 103.531 141.936 103.497 139.051 101.844L136.678 100.48C133.93 98.8944 133.657 97.1044 135.944 95.7747C138.198 94.462 141.271 94.5984 144.019 96.1838L153.375 101.571C156.021 103.105 156.243 104.81 153.972 106.123C151.702 107.452 148.919 107.367 146.256 105.833V105.85ZM143.934 98.7921L141.766 97.5306C140.468 96.7805 139.273 96.6611 138.386 97.1896C137.498 97.7011 137.703 98.4 139 99.1501L141.168 100.412C142.466 101.162 143.661 101.281 144.549 100.753C145.436 100.241 145.231 99.5422 143.934 98.7921Z" fill="white"/>
<path d="M73.8363 162.517L104.412 180.144L134.988 162.517L104.412 144.889L73.8363 162.517Z" fill="#6FEBF4"/>
<path d="M111.07 162.483L112.129 161.869L114.57 163.284L113.512 163.898L117.216 166.029L114.929 167.375L111.224 165.245L106.427 168.04L104.224 166.779L97.4469 157.266L99.7175 155.936L111.07 162.483ZM102.483 160.249L106.222 165.313L108.766 163.83L102.517 160.232H102.466L102.483 160.249Z" fill="white"/>
<path d="M110.592 141.326L141.168 158.954L171.727 141.326L141.168 123.699L110.592 141.326Z" fill="#6FEBF4"/>
<path d="M143.336 146.475L142.654 146.083L144.736 144.719L145.214 144.992C146.631 145.81 147.758 145.912 148.68 145.384C149.636 144.821 149.38 144.139 148.082 143.389L145.129 141.685C143.831 140.934 142.602 140.815 141.68 141.344C140.895 141.804 140.929 142.401 141.8 142.997L142.124 143.219L139.905 144.395L130.362 138.343L136.542 134.729L139.034 136.178L134.869 138.616L138.795 141.105H138.846C138.744 140.645 138.966 140.116 139.871 139.588C141.766 138.48 144.514 138.667 147.263 140.252L150.558 142.162C153.255 143.713 153.494 145.435 151.207 146.782C148.919 148.129 146 148.026 143.353 146.492L143.336 146.475Z" fill="white"/>
<path d="M147.041 120.323L177.617 137.951L208.176 120.323L177.617 102.696L147.041 120.323Z" fill="#6FEBF4"/>
<path d="M177.6 115.499L178.368 115.942L176.285 117.306L175.654 116.948C174.322 116.181 173.281 116.079 172.359 116.607C171.454 117.136 171.573 117.766 172.769 118.448L176.388 120.545L176.439 120.511C176.302 120.017 176.524 119.352 177.48 118.806C179.171 117.817 181.902 117.852 184.77 119.505L187.143 120.869C189.892 122.454 190.165 124.244 187.877 125.574C185.624 126.887 182.551 126.751 179.802 125.165L170.447 119.778C167.801 118.244 167.579 116.539 169.849 115.226C172.12 113.896 174.903 113.982 177.566 115.516L177.6 115.499ZM179.922 122.557L182.09 123.818C183.387 124.568 184.582 124.688 185.47 124.159C186.358 123.631 186.153 122.949 184.855 122.199L182.687 120.937C181.39 120.187 180.195 120.068 179.307 120.596C178.419 121.125 178.624 121.807 179.922 122.557Z" fill="white"/>
<path d="M108.578 182.48L139.137 200.107L169.713 182.48L139.137 164.87L108.578 182.48Z" fill="#6FEBF4"/>
<path d="M150.473 186.861L148.185 188.208L134.732 180.451L131.574 182.292L129.73 181.218C131.42 180.059 132.223 178.746 131.369 177.707L132.974 176.769L150.473 186.861Z" fill="white"/>
<path d="M145.317 161.307L175.893 178.917L206.469 161.307L175.893 143.679L145.317 161.307Z" fill="#6FEBF4"/>
<path d="M175.141 156.772L175.79 157.147C177.497 158.136 178.539 159.227 179.785 161.63L181.953 165.841L186.375 163.25L188.867 164.682L181.834 168.808L179.58 167.512L176.644 161.886C175.722 160.13 174.8 159.244 173.383 158.425L173.025 158.221C171.881 157.556 170.839 157.471 170.003 157.965C169.166 158.459 169.32 159.056 170.805 159.909L171.676 160.42L169.354 161.63L168.159 160.931C165.581 159.448 165.41 157.812 167.613 156.533C169.815 155.237 172.615 155.323 175.141 156.789V156.772Z" fill="white"/>
<path d="M181.765 140.287L212.341 157.914L242.917 140.287L212.341 122.659L181.765 140.287Z" fill="#6FEBF4"/>
<path d="M212.119 135.786L213.11 136.366C214.766 137.32 215.312 138.275 214.714 139.23L214.766 139.264C216.558 138.889 218.402 139.264 220.331 140.372L221.663 141.139C224.36 142.69 224.616 144.395 222.294 145.759C219.955 147.123 217.07 147.02 214.424 145.486L213.349 144.872L215.431 143.509L216.302 144.02C217.719 144.838 218.829 144.941 219.785 144.395C220.758 143.833 220.502 143.134 219.204 142.383L217.856 141.599C216.302 140.713 215.107 140.593 213.946 141.275L212.99 141.838L210.549 140.423L211.505 139.86C212.563 139.247 212.358 138.599 210.89 137.746L209.934 137.201C208.688 136.485 207.51 136.349 206.622 136.877C205.734 137.406 205.956 138.019 207.373 138.838L208.244 139.349L205.922 140.559L204.847 139.946C202.201 138.411 201.962 136.758 204.232 135.428C206.503 134.098 209.422 134.252 212.119 135.803V135.786Z" fill="white"/>
<path d="M142.397 202L172.956 219.627L203.532 202L172.956 184.372L142.397 202Z" fill="#6FEBF4"/>
<path d="M173.434 197.243L182.585 202.511C185.333 204.096 185.607 205.887 183.319 207.216C181.031 208.563 177.941 208.41 175.193 206.824L166.042 201.556C163.294 199.971 163.02 198.181 165.308 196.851C167.596 195.504 170.686 195.658 173.417 197.243H173.434ZM168.347 200.244L177.446 205.494C178.744 206.245 179.939 206.364 180.843 205.818C181.748 205.29 181.543 204.591 180.246 203.841L171.147 198.59C169.849 197.84 168.654 197.721 167.749 198.249C166.844 198.778 167.049 199.477 168.347 200.227V200.244Z" fill="white"/>
<path d="M276.737 159.806L246.161 142.179L217.395 158.766L217.361 158.749L179.136 180.809L209.712 198.437L246.127 177.417L246.161 177.434L276.737 159.806Z" fill="#F39200"/>
<path d="M250.583 156.772L242.149 161.699L240.1 160.522L248.534 155.595L250.583 156.772ZM254.834 159.227L246.4 164.153L244.351 162.977L252.785 158.05L254.834 159.227Z" fill="white"/>
<path d="M150.575 79.0508L181.151 96.6782L211.727 79.0508L181.151 61.4233L150.575 79.0508Z" fill="#C1425D"/>
<path d="M183.37 78.3177L195.235 81.7955L192.811 83.2105L184.787 80.7556H184.736L189.106 85.3585L186.733 86.7394L180.553 79.8179L169.405 76.5448L171.829 75.1298L179.085 77.3631H179.136L175.176 73.1693L177.549 71.7714L183.353 78.2836L183.37 78.3177Z" fill="white"/>
<path d="M184.395 98.5706L214.97 116.198L245.529 98.5706L214.97 80.9431L184.395 98.5706Z" fill="#C1425D"/>
<path d="M218.385 98.9114L213.775 101.605L211.232 100.139L215.841 97.4453L218.385 98.9114Z" fill="white"/>
<path d="M219.119 118.534L249.695 136.161L280.271 118.534L249.695 100.906L219.119 118.534Z" fill="#C1425D"/>
<path d="M250.856 117.494L254.185 115.55L256.233 116.726L252.904 118.67L257.053 121.057L255.277 122.097L251.129 119.71L247.8 121.653L245.751 120.477L249.08 118.534L244.932 116.147L246.707 115.107L250.856 117.494Z" fill="white"/>
<path d="M252.938 138.053L283.514 155.681L314.09 138.053L283.514 120.426L252.938 138.053Z" fill="#C1425D"/>
<path d="M276.634 135.189L280.441 137.388C282.149 138.36 282.302 139.485 280.885 140.321C279.468 141.156 277.522 141.071 275.832 140.082L272.025 137.883C270.318 136.911 270.164 135.786 271.581 134.951C273.015 134.115 274.944 134.2 276.634 135.189ZM273.561 136.979L277.369 139.178C278.12 139.605 278.751 139.673 279.246 139.383C279.742 139.093 279.622 138.718 278.871 138.292L275.064 136.093C274.313 135.667 273.681 135.598 273.186 135.888C272.691 136.178 272.81 136.553 273.561 136.979ZM290.019 145.06L288.585 145.895L277.761 131.319L279.195 130.484L290.019 145.06ZM291.982 136.314L295.789 138.514C297.496 139.502 297.65 140.61 296.233 141.446C294.816 142.281 292.87 142.196 291.18 141.207L287.373 139.008C285.666 138.036 285.512 136.911 286.929 136.076C288.346 135.24 290.292 135.326 291.982 136.314ZM288.909 138.104L292.716 140.304C293.467 140.73 294.099 140.798 294.594 140.508C295.089 140.218 294.97 139.843 294.219 139.417L290.412 137.218C289.66 136.792 289.029 136.724 288.534 137.013C288.039 137.303 288.158 137.678 288.909 138.104Z" fill="white"/>
<path d="M206.731 140.472C206.321 140.025 205.929 139.541 205.742 138.982C205.556 138.405 205.593 137.734 205.966 137.269C206.283 136.896 206.768 136.71 207.253 136.617C208.261 136.43 209.324 136.542 210.275 136.933C210.853 137.175 211.394 137.529 211.935 137.883C212.924 138.554 213.931 139.206 214.92 139.858C215.442 140.212 215.983 140.566 216.338 141.069C216.804 141.739 216.897 142.596 216.916 143.416C216.916 143.676 216.916 143.918 216.841 144.161C215.535 148.203 207.999 141.832 206.731 140.435V140.472Z" fill="#634E42"/>
<path d="M206.731 140.473C206.321 140.026 205.929 139.541 205.742 138.982C205.556 138.405 205.593 137.734 205.966 137.269C205.612 137.939 205.78 138.815 206.134 139.467C206.488 140.119 207.048 140.64 207.626 141.143C208.447 141.851 209.286 142.54 210.201 143.155C211.096 143.751 212.047 144.254 213.036 144.645C213.465 144.813 213.913 144.98 214.379 144.999C215.461 145.055 216.58 144.477 216.897 143.453C216.897 143.714 216.897 143.956 216.823 144.198C215.517 148.24 207.981 141.87 206.712 140.473" fill="#2D2D2B"/>
<path d="M211.954 132.835C211.786 134.661 211.656 136.468 211.282 138.293C212.103 139.69 213.596 140.566 215.106 140.547C215.293 140.547 215.498 140.528 215.629 140.379C215.853 140.156 215.778 139.839 215.834 139.541C215.927 139.168 216.058 138.833 216.151 138.442C216.394 137.418 216.636 136.374 216.86 135.331C217.308 133.264 217.737 131.177 218.128 129.091C218.912 124.919 219.602 120.709 220.143 116.499C220.218 115.903 220.292 115.307 220.367 114.729C221.318 106.981 222.139 98.5237 227.101 92.9728C228.071 91.8738 229.227 90.8493 229.6 89.3777C230.029 87.6826 229.209 85.8199 227.959 84.7209C225.553 82.5788 219.714 81.2376 217.028 83.5101C213.969 86.118 214.939 92.712 214.789 96.363C214.472 104.913 214.025 113.463 213.166 121.975C212.887 124.751 212.57 127.526 212.196 130.302C212.085 131.159 211.991 132.016 211.917 132.854L211.954 132.835Z" fill="#2D2D2B"/>
<path d="M231.951 88.2415C232.137 89.3032 232.063 90.3836 232.1 91.464C232.361 98.3933 237.677 104.261 238.405 111.153C238.498 111.935 238.498 112.792 238.125 113.481C237.342 114.934 234.674 115.177 233.275 114.543C231.167 113.575 229.768 110.389 228.705 108.489C227.586 106.515 226.467 104.522 225.329 102.547C224.004 100.2 222.661 97.8345 221.952 95.2267C221.244 92.6375 221.206 89.7503 222.437 87.3474C225.012 82.318 230.85 82.3552 231.932 88.2415H231.951Z" fill="#2D2D2B"/>
<path d="M254.876 102.976C254.857 104.857 254.82 106.757 254.802 108.657C254.802 108.787 254.802 108.918 254.727 109.03C254.652 109.123 254.54 109.179 254.428 109.216C252.171 110.054 249.896 110.911 247.639 111.749C246.165 112.308 244.673 112.848 243.143 113.295C241.763 113.686 240.289 114.078 238.853 114.189C237.566 114.282 236.353 114.785 235.029 114.841C234.581 114.841 234.115 114.823 233.76 114.543C233.443 114.264 233.312 113.835 233.238 113.407C233.051 112.159 233.219 110.278 234.003 109.234C234.973 107.968 237.211 107.484 238.629 106.999C243.908 105.211 249.392 103.944 254.858 102.994L254.876 102.976Z" fill="#2D2D2B"/>
<path d="M211.879 38.339C210.816 40.2762 210.462 42.7164 210.63 44.9703C210.797 47.2428 211.823 49.5712 213.745 50.782C216.319 52.4026 219.919 51.583 222.102 49.4595C225.515 46.1252 226.616 39.4007 222.549 36.1037C220.833 34.7066 218.408 34.2223 216.263 34.7998C214.211 35.3586 212.775 36.6625 211.879 38.3203V38.339Z" fill="#F4CFBD"/>
<path d="M214.584 50.2046C214.845 51.732 214.379 54.9732 215.069 56.2212C215.89 57.7114 218.576 57.4692 220.124 57.078C220.703 56.929 221.318 56.6496 221.486 56.0722C221.579 55.7182 221.486 55.3643 221.411 55.0104C220.926 53.0359 220.926 50.931 221.411 48.9565C218.874 49.0869 216.338 49.236 213.801 49.3663L214.584 50.2046Z" fill="#F4CFBD"/>
<path d="M210.014 63.2623C210.014 66.8387 210.145 70.5828 211.301 73.973C212.495 77.4377 212.887 81.3121 212.775 84.9445C212.719 86.5278 212.644 88.3346 213.801 89.415C214.827 90.365 216.58 90.5513 217.886 90.1787C218.893 89.8807 219.789 89.266 220.815 89.0052C221.878 88.7258 222.997 88.8376 224.079 88.6699C225.646 88.4278 227.045 87.5895 228.351 86.6954C229.134 86.1552 229.768 85.9876 230.626 85.7082C231.41 85.466 231.615 84.8513 231.559 84.069C231.391 81.7219 230.496 79.5053 229.862 77.2328C229.134 74.6063 229.451 72.3338 229.507 69.7073C229.563 66.4476 229.507 63.1319 229.358 59.8535C229.283 58.2329 229.078 56.482 228.015 55.3643C224.974 52.1418 217.42 54.3026 214.099 55.8114C212.887 56.3702 211.581 56.9849 210.835 58.177C210.07 59.4064 210.033 60.9711 209.995 62.4613C209.995 62.7221 209.995 62.9829 209.995 63.2437L210.014 63.2623Z" fill="#36A9E1"/>
<path d="M255.398 110.557C255.51 109.067 255.641 107.483 254.913 106.198C254.708 105.826 254.466 105.472 254.261 105.099C253.813 104.335 253.496 103.534 253.757 102.584C253.477 102.901 253.272 103.292 253.141 103.739C252.899 104.578 252.992 105.49 253.179 106.347C253.365 107.204 253.626 108.042 253.738 108.918C253.813 109.495 253.813 110.091 253.85 110.687C253.906 111.637 254.037 112.625 254.484 113.481C254.895 114.301 255.641 114.972 256.536 115.195C256.424 115.102 256.294 114.99 256.201 114.86C255.287 113.686 255.305 112.066 255.417 110.576L255.398 110.557Z" fill="#634E42"/>
<path d="M257.861 115.046C258.626 114.618 258.812 113.593 258.868 112.718C258.98 110.222 258.607 107.688 257.786 105.341C257.394 104.205 256.798 102.994 255.772 102.287C254.988 101.746 254.261 102.007 253.757 102.585C253.496 103.535 253.813 104.336 254.261 105.099C254.466 105.472 254.708 105.826 254.914 106.198C255.641 107.484 255.51 109.085 255.399 110.557C255.287 112.029 255.268 113.668 256.182 114.841C256.275 114.972 256.406 115.065 256.518 115.177C256.555 115.177 256.592 115.214 256.63 115.214C257.04 115.288 257.488 115.251 257.842 115.046H257.861Z" fill="#2D2D2B"/>
<path d="M254.652 105.211C254.857 105.565 255.081 105.919 255.286 106.273C255.995 107.521 255.865 109.067 255.753 110.501C255.641 111.935 255.641 113.5 256.518 114.636C256.76 114.953 257.077 115.214 257.469 115.288C258.01 115.381 258.551 115.046 258.868 114.599C259.185 114.152 259.316 113.593 259.428 113.053C260.062 110.296 259.521 107.465 258.327 104.876C257.917 104 257.413 103.143 256.667 102.529C255.827 101.858 254.578 101.318 254.167 102.659C253.869 103.628 254.205 104.41 254.652 105.192V105.211Z" fill="#3D3D3B"/>
<path d="M197.18 66.0193C193.99 67.5467 190.614 68.8134 187.853 71.03C186.958 71.7565 186.1 72.9859 186.734 73.9359C187.051 74.3829 187.611 74.5692 188.133 74.6996C191.509 75.4447 194.979 74.2712 198.206 73.0604C203.28 71.1418 208.279 69.0555 213.204 66.8016C215.032 65.9634 216.953 65.0134 217.923 63.2625C218.781 61.7164 218.688 59.7046 217.718 58.2517C214.976 54.1723 211.655 57.1713 208.82 59.1086C205.089 61.6605 201.265 64.0821 197.18 66.0193Z" fill="#36A9E1"/>
<path d="M181.698 73.1908C181.604 73.228 181.492 73.2653 181.436 73.3584C181.343 73.5075 181.436 73.6937 181.586 73.8055C181.735 73.8986 181.903 73.9359 182.052 74.029C180.951 74.3084 179.907 74.7555 178.937 75.3329C178.638 75.5006 178.321 75.8359 178.508 76.1153C178.284 76.3388 178.041 76.5996 178.004 76.9163C177.967 77.2329 178.191 77.6055 178.526 77.5682C178.788 77.5309 178.956 77.2702 179.198 77.2143C179.105 77.4937 179.385 77.8104 179.683 77.8476C179.981 77.8849 180.28 77.7359 180.541 77.5868C180.709 77.9966 181.25 78.0898 181.679 77.978C182.108 77.8662 182.481 77.5868 182.91 77.4937C182.91 77.6427 182.91 77.7917 182.91 77.9221C183.507 78.0525 184.104 77.8104 184.664 77.5496C185.634 77.1025 186.585 76.5996 187.499 76.0408C188.133 75.6682 188.823 75.1839 188.954 74.4388C189.029 73.9359 188.805 73.3957 188.394 73.0604C187.648 72.4457 186.174 72.5761 185.26 72.5947C184.048 72.5947 182.854 72.7996 181.698 73.1722V73.1908Z" fill="#F4CFBD"/>
<path d="M238.517 45.9204C241.576 44.1322 244.505 42.0459 247.9 41.0214C249 40.6862 250.511 40.6675 250.922 41.7293C251.127 42.2322 250.959 42.8097 250.772 43.3126C249.504 46.5165 246.594 48.7331 243.759 50.7076C239.338 53.8184 234.786 56.7801 230.16 59.5929C228.444 60.636 226.578 61.6791 224.582 61.5115C222.829 61.3438 221.206 60.1517 220.553 58.5311C218.707 53.9674 223.053 52.9243 226.261 51.6576C230.458 49.9998 234.618 48.193 238.535 45.9204H238.517Z" fill="#36A9E1"/>
<path d="M253.16 37.1469C253.16 37.1469 253.347 37.0166 253.44 37.0166C253.608 37.0166 253.72 37.2215 253.72 37.3891C253.72 37.5567 253.664 37.7244 253.645 37.892C254.503 37.1469 255.454 36.5322 256.48 36.0479C256.779 35.8989 257.245 35.8244 257.376 36.1411C257.693 36.0852 258.029 36.0293 258.327 36.1783C258.626 36.3087 258.793 36.7371 258.588 36.9607C258.42 37.1469 258.103 37.1469 257.917 37.3146C258.215 37.3891 258.308 37.7989 258.159 38.0783C258.01 38.3577 257.73 38.5067 257.469 38.6558C257.712 39.0283 257.488 39.5312 257.152 39.8106C256.816 40.0901 256.387 40.2577 256.07 40.5557C256.182 40.6489 256.312 40.7234 256.424 40.8165C256.201 41.3753 255.641 41.7479 255.119 42.0459C254.205 42.5861 253.253 43.089 252.283 43.5361C251.612 43.8528 250.828 44.1508 250.157 43.8341C249.69 43.6106 249.373 43.1263 249.317 42.6047C249.224 41.6361 250.157 40.4999 250.679 39.7548C251.369 38.7675 252.209 37.8734 253.16 37.1283V37.1469Z" fill="#F4CFBD"/>
<path d="M220.758 33.7381C220.106 33.4587 219.397 33.2538 218.669 33.1421C216.599 32.7881 214.323 33.0676 212.625 34.297C210.928 35.545 209.958 37.892 210.723 39.8479C210.629 39.3263 210.723 38.7861 210.984 38.3204C211.04 39.3077 211.208 40.2949 211.674 41.1518C212.308 42.3253 213.316 42.6047 214.398 43.2194C213.987 45.1008 214.621 46.7586 215.069 48.5841C215.256 49.3664 215.479 50.2047 216.132 50.689C216.878 51.2664 218.874 51.5272 219.826 51.3968C221.486 51.1733 222.829 49.7017 223.911 48.5655C224.489 47.9508 225.086 47.3174 225.478 46.5537C226.299 44.9331 225.888 43.5175 225.59 41.841C225.478 41.1704 225.496 40.4812 225.441 39.792C225.161 36.9048 223.277 34.7813 220.796 33.7381H220.758Z" fill="#1D1D1B"/>
<path d="M213.614 45.3429C213.614 44.691 214.472 44.3184 215.05 44.6164C215.629 44.8959 215.89 45.6037 215.853 46.2557C215.834 46.6655 215.703 47.0939 215.386 47.3733C214.883 47.8203 214.025 47.7086 213.595 47.2056C213.166 46.6841 213.166 45.8831 213.54 45.3243" fill="#F4CFBD"/>
<path d="M219.21 92.2838C220.591 91.5573 222.12 90.9799 223.631 90.5701C222.475 91.4456 220.646 92.1534 219.21 92.2838Z" fill="#1D1D1B"/>
<path d="M226.075 89.8622C227.343 89.1172 228.406 88.726 229.712 88.1858C229.451 88.7446 228.574 89.0054 228.033 89.3221C227.436 89.5642 226.672 89.9554 226.075 89.8809V89.8622Z" fill="#1D1D1B"/>
<g opacity="0.2">
<path d="M226.299 104.205C226.261 100.852 226.616 97.4807 227.362 94.2209C226.299 94.37 225.478 95.2268 224.956 96.1582C224.433 97.0895 224.06 98.1886 223.482 99.1013C223.482 99.1013 225.646 103.088 226.131 103.926L226.299 104.224V104.205Z" fill="black"/>
</g>
</g>
<defs>
<clipPath id="clip0_39_329">
<rect width="351" height="287" fill="white"/>
</clipPath>
</defs>
</svg>
