<svg xmlns="http://www.w3.org/2000/svg" id="Layer_2" viewBox="0 0 1024 1024">
  <defs>
    <style>
      .cls-6{fill:#363d3f}
    </style>
  </defs>
  <g id="Calc">
    <rect width="638.07" height="793.53" x="192.97" y="115.23" rx="160.4" ry="160.4" style="fill:#bcf62e"/>
    <path d="M670.63 115.23H353.37c-88.22 0-160.4 72.18-160.4 160.4v129.5l23.85-125.64c0-66.16 63.44-120.29 129.6-120.29h299.42c66.16 0 120.29 54.13 120.29 120.29v467.53c0 66.16-54.13 120.29-120.29 120.29h-397.5c-.79 0-1.57-.04-2.36-.06 28.48 25.77 66.18 41.51 107.38 41.51h317.27c88.22 0 160.4-72.18 160.4-160.4V275.64c0-88.22-72.18-160.4-160.4-160.4Z" style="opacity:.15"/>
    <rect width="638.07" height="793.53" x="192.97" y="115.23" rx="160.4" ry="160.4" style="fill:none"/>
    <rect width="638.07" height="793.53" x="192.97" y="115.23" rx="160.4" ry="160.4" style="stroke:#363d3f;stroke-miterlimit:10;stroke-width:54.95px;fill:none"/>
    <path d="M340 460.44c-4.7 0-16.57-2.23-25.27-22.9-8.52-20.25-12.85-54.87-12.85-102.9 0-42.94 4.39-74 13.05-92.3 8.88-18.76 20.48-20.79 25.06-20.79h338.33c6.85 0 16.33 4.04 22.62 23.3 6.15 18.83 9.26 51.16 9.26 96.06s-3.44 77.67-10.21 96.64c-7.11 19.9-17.6 22.88-23.23 22.88H340Z" style="fill:#fff"/>
    <path d="M678.32 236.28c.1 0 17.15.15 17.15 104.63S676.76 445.7 676.76 445.7H340s-23.38 0-23.38-111.07c0-98.19 23.23-98.35 23.38-98.35h338.33m0-29.46H340c-6.99 0-14.34 2.46-20.68 6.94-7.12 5.02-13.07 12.51-17.69 22.28-9.73 20.57-14.46 52.82-14.46 98.6 0 50.71 4.58 86.24 14 108.62 12.13 28.8 31.21 31.91 38.84 31.91h336.77c8.24 0 16.42-3.4 23.03-9.57 5.88-5.49 10.48-13.04 14.07-23.09 7.45-20.86 11.07-54.09 11.07-101.6s-3.27-80.04-9.99-100.63c-3.24-9.92-7.44-17.43-12.84-22.95-6.63-6.78-15.08-10.51-23.78-10.51Z" class="cls-6"/>
    <g>
      <path d="M512 814.25c-19.64 0-35.62-15.98-35.62-35.62v-69.8h-69.8c-19.64 0-35.62-15.98-35.62-35.62s15.98-35.62 35.62-35.62h69.8v-69.8c0-19.64 15.98-35.62 35.62-35.62s35.62 15.98 35.62 35.62v69.8h69.8c19.64 0 35.62 15.98 35.62 35.62s-15.98 35.62-35.62 35.62h-69.8v69.8c0 19.64-15.98 35.62-35.62 35.62Z" style="fill:#fd5c26"/>
      <path d="M512 547.96c10.91 0 19.84 8.93 19.84 19.84v85.58h85.58c10.91 0 19.84 8.93 19.84 19.84s-8.93 19.84-19.84 19.84h-85.58v85.58c0 10.91-8.93 19.84-19.84 19.84s-19.84-8.93-19.84-19.84v-85.58h-85.58c-10.91 0-19.84-8.93-19.84-19.84s8.93-19.84 19.84-19.84h85.58V567.8c0-10.91 8.93-19.84 19.84-19.84m0-31.56c-28.34 0-51.4 23.06-51.4 51.4v54.02h-54.02c-28.34 0-51.4 23.06-51.4 51.4s23.06 51.4 51.4 51.4h54.02v54.02c0 28.34 23.06 51.4 51.4 51.4s51.4-23.06 51.4-51.4v-54.02h54.02c28.34 0 51.4-23.06 51.4-51.4s-23.06-51.4-51.4-51.4H563.4V567.8c0-28.34-23.06-51.4-51.4-51.4Z" class="cls-6"/>
    </g>
  </g>
  <text style="font-family:Verdana-Bold,Verdana;font-size:181.57px;letter-spacing:0;fill:#363d3f" transform="translate(376.05 408.9)"><tspan x="0" y="0">10</tspan></text>
</svg>
