<svg width="391" height="48" viewBox="0 0 391 48" fill="none" xmlns="http://www.w3.org/2000/svg">
<g clip-path="url(#clip0_2011_43)">
<path d="M52.7494 1.46947V43.5075C52.7494 43.8546 53.032 44.1372 53.3792 44.1372H95.5759C96.1384 44.1372 96.4183 43.4563 96.02 43.0607L53.7909 1.03617C53.4061 0.654009 52.7494 0.92583 52.7494 1.46947Z" fill="#FCCD0F"/>
<path d="M58.9582 1.04153L72.5385 14.6218C72.6542 14.7375 72.8076 14.7994 72.9691 14.7994H86.587C86.9234 14.7994 87.1979 15.0739 87.1979 15.4103V29.0283C87.1979 29.1898 87.2625 29.3459 87.3756 29.4589L100.956 43.0392C101.341 43.424 101.997 43.1522 101.997 42.6085V0.610923C101.997 0.274512 101.723 0 101.386 0H59.3861C58.8425 0 58.5707 0.656675 58.9555 1.04153H58.9582Z" fill="#ED8023"/>
<path d="M0 1.46947V43.5075C0 43.8546 0.282586 44.1372 0.629763 44.1372H42.8265C43.389 44.1372 43.6689 43.4563 43.2706 43.0607L1.04153 1.03617C0.656676 0.654009 0 0.92583 0 1.46947Z" fill="#0E7C75"/>
<path d="M6.20881 1.04153L19.7891 14.6218C19.9048 14.7375 20.0582 14.7994 20.2197 14.7994H33.8376C34.174 14.7994 34.4485 15.0739 34.4485 15.4103V29.0283C34.4485 29.1898 34.5131 29.3459 34.6262 29.4589L48.2064 43.0392C48.5913 43.424 49.248 43.1522 49.248 42.6085V0.610923C49.248 0.274512 48.9734 0 48.637 0H6.63941C6.09577 0 5.82395 0.656675 6.20881 1.04153Z" fill="#4CAA4E"/>
</g>
<path d="M123.86 18H122.48L118.74 12.48H115.8V18H114.66V4.66H119.64C121.94 4.66 123.7 6.12 123.7 8.56C123.7 10.98 121.98 12.32 120 12.4L123.86 18ZM122.5 8.56C122.5 6.88 121.3 5.7 119.54 5.7H115.8V11.44H119.54C121.3 11.44 122.5 10.24 122.5 8.56ZM133.284 18H132.244V16.86C131.384 17.8 130.304 18.24 128.964 18.24C127.304 18.24 125.584 17.1 125.584 15.02C125.584 12.92 127.284 11.82 128.964 11.82C130.304 11.82 131.404 12.26 132.244 13.2V11.24C132.244 9.8 131.084 9.02 129.644 9.02C128.444 9.02 127.504 9.44 126.624 10.44L126.044 9.72C127.044 8.64 128.164 8.1 129.764 8.1C131.724 8.1 133.284 9.04 133.284 11.2V18ZM132.244 16.1V13.98C131.564 13.1 130.484 12.64 129.324 12.64C127.724 12.64 126.684 13.66 126.684 15.04C126.684 16.4 127.724 17.42 129.324 17.42C130.484 17.42 131.564 16.98 132.244 16.1ZM144.094 18H143.054V11.46C143.054 9.6 142.114 9.04 140.714 9.04C139.474 9.04 138.194 9.82 137.574 10.7V18H136.534V8.34H137.574V9.8C138.274 8.96 139.654 8.1 141.054 8.1C143.014 8.1 144.094 9.06 144.094 11.24V18ZM147.355 20.46L147.955 19.66C148.795 20.66 149.715 21.02 151.155 21.02C152.915 21.02 154.455 20.14 154.455 17.92V16.4C153.775 17.38 152.535 18.2 151.095 18.2C148.535 18.2 146.775 16.26 146.775 13.16C146.775 10.1 148.535 8.1 151.095 8.1C152.475 8.1 153.675 8.8 154.455 9.9V8.34H155.515V17.9C155.515 20.86 153.515 21.92 151.155 21.92C149.535 21.92 148.495 21.62 147.355 20.46ZM154.455 15.5V10.8C153.895 9.86 152.615 9.04 151.275 9.04C149.135 9.04 147.895 10.82 147.895 13.16C147.895 15.5 149.135 17.26 151.275 17.26C152.615 17.26 153.895 16.44 154.455 15.5ZM165.921 18H164.881V16.86C164.021 17.8 162.941 18.24 161.601 18.24C159.941 18.24 158.221 17.1 158.221 15.02C158.221 12.92 159.921 11.82 161.601 11.82C162.941 11.82 164.041 12.26 164.881 13.2V11.24C164.881 9.8 163.721 9.02 162.281 9.02C161.081 9.02 160.141 9.44 159.261 10.44L158.681 9.72C159.681 8.64 160.801 8.1 162.401 8.1C164.361 8.1 165.921 9.04 165.921 11.2V18ZM164.881 16.1V13.98C164.201 13.1 163.121 12.64 161.961 12.64C160.361 12.64 159.321 13.66 159.321 15.04C159.321 16.4 160.361 17.42 161.961 17.42C163.121 17.42 164.201 16.98 164.881 16.1ZM185.367 18H184.087L182.747 14.72H175.647L174.307 18H173.027L178.487 4.66H179.907L185.367 18ZM182.387 13.68L179.187 5.78L176.007 13.68H182.387ZM194.641 18H193.601V16.58C192.801 17.46 191.521 18.24 190.121 18.24C188.141 18.24 187.081 17.32 187.081 15.14V8.34H188.121V14.9C188.121 16.78 189.061 17.3 190.461 17.3C191.701 17.3 192.961 16.56 193.601 15.7V8.34H194.641V18ZM205.062 18H204.022V16.86C203.162 17.8 202.082 18.24 200.742 18.24C199.082 18.24 197.362 17.1 197.362 15.02C197.362 12.92 199.062 11.82 200.742 11.82C202.082 11.82 203.182 12.26 204.022 13.2V11.24C204.022 9.8 202.862 9.02 201.422 9.02C200.222 9.02 199.282 9.44 198.402 10.44L197.822 9.72C198.822 8.64 199.942 8.1 201.542 8.1C203.502 8.1 205.062 9.04 205.062 11.2V18ZM204.022 16.1V13.98C203.342 13.1 202.262 12.64 201.102 12.64C199.502 12.64 198.462 13.66 198.462 15.04C198.462 16.4 199.502 17.42 201.102 17.42C202.262 17.42 203.342 16.98 204.022 16.1ZM215.871 18H214.831V11.42C214.831 9.56 213.891 9.04 212.491 9.04C211.251 9.04 209.971 9.82 209.351 10.7V18H208.311V4.66H209.351V9.8C210.051 8.96 211.431 8.1 212.831 8.1C214.791 8.1 215.871 9.02 215.871 11.2V18ZM226.292 18H225.252V16.86C224.392 17.8 223.312 18.24 221.972 18.24C220.312 18.24 218.592 17.1 218.592 15.02C218.592 12.92 220.292 11.82 221.972 11.82C223.312 11.82 224.412 12.26 225.252 13.2V11.24C225.252 9.8 224.092 9.02 222.652 9.02C221.452 9.02 220.512 9.44 219.632 10.44L219.052 9.72C220.052 8.64 221.172 8.1 222.772 8.1C224.732 8.1 226.292 9.04 226.292 11.2V18ZM225.252 16.1V13.98C224.572 13.1 223.492 12.64 222.332 12.64C220.732 12.64 219.692 13.66 219.692 15.04C219.692 16.4 220.732 17.42 222.332 17.42C223.492 17.42 224.572 16.98 225.252 16.1ZM245.738 18H244.458L243.118 14.72H236.018L234.678 18H233.398L238.858 4.66H240.278L245.738 18ZM242.758 13.68L239.558 5.78L236.378 13.68H242.758ZM255.767 18H254.367L250.507 13.4L248.707 15.1V18H247.667V4.66H248.707V13.86L254.407 8.34H255.787L251.287 12.7L255.767 18ZM261.395 18.24C258.575 18.24 256.755 15.98 256.755 13.16C256.755 10.34 258.575 8.1 261.395 8.1C264.255 8.1 266.055 10.34 266.055 13.16C266.055 15.98 264.255 18.24 261.395 18.24ZM261.395 17.3C263.675 17.3 264.935 15.32 264.935 13.16C264.935 11.02 263.675 9.04 261.395 9.04C259.155 9.04 257.875 11.02 257.875 13.16C257.875 15.32 259.155 17.3 261.395 17.3ZM120.62 42H117.18V31.66H113.44V28.66H124.34V31.66H120.62V42ZM123.48 37.16C123.48 34.36 125.6 32.1 128.62 32.1C131.48 32.1 133.56 34.2 133.56 37.48V38.14H126.68C126.86 39.04 127.7 39.86 129.14 39.86C130 39.86 130.96 39.52 131.5 39.04L132.8 40.96C131.84 41.82 130.24 42.24 128.76 42.24C125.78 42.24 123.48 40.3 123.48 37.16ZM128.62 34.48C127.28 34.48 126.76 35.44 126.64 36.14H130.62C130.54 35.46 130.04 34.48 128.62 34.48ZM143.857 42H140.777V41.04C140.177 41.76 139.017 42.24 137.777 42.24C136.297 42.24 134.457 41.24 134.457 39.06C134.457 36.72 136.297 36.02 137.777 36.02C139.057 36.02 140.197 36.42 140.777 37.14V35.92C140.777 35.08 140.057 34.52 138.817 34.52C137.857 34.52 136.857 34.88 136.077 35.54L134.977 33.6C136.217 32.54 137.877 32.1 139.357 32.1C141.677 32.1 143.857 32.96 143.857 35.96V42ZM140.777 39.52V38.66C140.457 38.22 139.737 37.98 139.057 37.98C138.237 37.98 137.517 38.34 137.517 39.1C137.517 39.86 138.237 40.22 139.057 40.22C139.737 40.22 140.457 39.98 140.777 39.52ZM145.453 37.16C145.453 34.14 147.713 32.1 150.733 32.1C152.813 32.1 154.113 33.02 154.693 33.88L152.693 35.74C152.313 35.18 151.693 34.82 150.873 34.82C149.593 34.82 148.613 35.7 148.613 37.16C148.613 38.62 149.593 39.52 150.873 39.52C151.693 39.52 152.313 39.12 152.693 38.58L154.693 40.46C154.113 41.3 152.813 42.24 150.733 42.24C147.713 42.24 145.453 40.2 145.453 37.16ZM165.733 42H162.653V36.38C162.653 35.2 162.033 34.82 161.053 34.82C160.153 34.82 159.553 35.32 159.193 35.76V42H156.113V28.66H159.193V33.52C159.773 32.84 160.913 32.1 162.533 32.1C164.733 32.1 165.733 33.34 165.733 35.12V42ZM169.508 31.12C168.528 31.12 167.748 30.34 167.748 29.36C167.748 28.38 168.528 27.6 169.508 27.6C170.488 27.6 171.268 28.38 171.268 29.36C171.268 30.34 170.488 31.12 169.508 31.12ZM171.048 42H167.968V32.34H171.048V42ZM182.9 42H179.82V36.42C179.82 35.24 179.2 34.82 178.24 34.82C177.32 34.82 176.72 35.32 176.36 35.76V42H173.28V32.34H176.36V33.52C176.94 32.84 178.08 32.1 179.7 32.1C181.9 32.1 182.9 33.38 182.9 35.16V42ZM184.876 44.48L186.216 42.28C186.956 43.08 188.036 43.4 189.156 43.4C190.176 43.4 191.616 42.98 191.616 41.18V40.44C190.816 41.38 189.856 41.84 188.756 41.84C186.396 41.84 184.496 40.22 184.496 36.96C184.496 33.78 186.336 32.1 188.756 32.1C189.836 32.1 190.836 32.52 191.616 33.48V32.34H194.676V41.14C194.676 45.08 191.556 45.92 189.156 45.92C187.496 45.92 186.116 45.5 184.876 44.48ZM191.616 38.26V35.68C191.236 35.16 190.416 34.82 189.776 34.82C188.556 34.82 187.656 35.56 187.656 36.96C187.656 38.38 188.556 39.12 189.776 39.12C190.416 39.12 191.236 38.78 191.616 38.26ZM210.83 42H207.75V41.04C207.15 41.76 205.99 42.24 204.75 42.24C203.27 42.24 201.43 41.24 201.43 39.06C201.43 36.72 203.27 36.02 204.75 36.02C206.03 36.02 207.17 36.42 207.75 37.14V35.92C207.75 35.08 207.03 34.52 205.79 34.52C204.83 34.52 203.83 34.88 203.05 35.54L201.95 33.6C203.19 32.54 204.85 32.1 206.33 32.1C208.65 32.1 210.83 32.96 210.83 35.96V42ZM207.75 39.52V38.66C207.43 38.22 206.71 37.98 206.03 37.98C205.21 37.98 204.49 38.34 204.49 39.1C204.49 39.86 205.21 40.22 206.03 40.22C206.71 40.22 207.43 39.98 207.75 39.52ZM222.685 42H219.605V36.42C219.605 35.24 218.985 34.82 218.025 34.82C217.105 34.82 216.505 35.32 216.145 35.76V42H213.065V32.34H216.145V33.52C216.725 32.84 217.865 32.1 219.485 32.1C221.685 32.1 222.685 33.38 222.685 35.16V42ZM234.481 42H231.421V40.88C230.621 41.8 229.641 42.24 228.561 42.24C226.181 42.24 224.281 40.44 224.281 37.16C224.281 34 226.141 32.1 228.561 32.1C229.621 32.1 230.641 32.52 231.421 33.48V28.66H234.481V42ZM231.421 38.64V35.68C231.021 35.16 230.221 34.82 229.561 34.82C228.341 34.82 227.441 35.72 227.441 37.16C227.441 38.6 228.341 39.52 229.561 39.52C230.221 39.52 231.021 39.16 231.421 38.64ZM250.734 42H241.934V28.66H245.374V39H250.734V42ZM251.703 37.16C251.703 34.36 253.823 32.1 256.843 32.1C259.703 32.1 261.783 34.2 261.783 37.48V38.14H254.903C255.083 39.04 255.923 39.86 257.363 39.86C258.223 39.86 259.183 39.52 259.723 39.04L261.023 40.96C260.063 41.82 258.463 42.24 256.983 42.24C254.003 42.24 251.703 40.3 251.703 37.16ZM256.843 34.48C255.503 34.48 254.983 35.44 254.863 36.14H258.843C258.763 35.46 258.263 34.48 256.843 34.48ZM272.08 42H269V41.04C268.4 41.76 267.24 42.24 266 42.24C264.52 42.24 262.68 41.24 262.68 39.06C262.68 36.72 264.52 36.02 266 36.02C267.28 36.02 268.42 36.42 269 37.14V35.92C269 35.08 268.28 34.52 267.04 34.52C266.08 34.52 265.08 34.88 264.3 35.54L263.2 33.6C264.44 32.54 266.1 32.1 267.58 32.1C269.9 32.1 272.08 32.96 272.08 35.96V42ZM269 39.52V38.66C268.68 38.22 267.96 37.98 267.28 37.98C266.46 37.98 265.74 38.34 265.74 39.1C265.74 39.86 266.46 40.22 267.28 40.22C267.96 40.22 268.68 39.98 269 39.52ZM277.395 42H274.315V32.34H277.395V33.56C278.035 32.78 279.255 32.1 280.415 32.1V35.08C280.235 35.02 279.975 34.98 279.655 34.98C278.855 34.98 277.795 35.32 277.395 35.88V42ZM291.435 42H288.355V36.42C288.355 35.24 287.735 34.82 286.775 34.82C285.855 34.82 285.255 35.32 284.895 35.76V42H281.815V32.34H284.895V33.52C285.475 32.84 286.615 32.1 288.235 32.1C290.435 32.1 291.435 33.38 291.435 35.16V42ZM295.211 31.12C294.231 31.12 293.451 30.34 293.451 29.36C293.451 28.38 294.231 27.6 295.211 27.6C296.191 27.6 296.971 28.38 296.971 29.36C296.971 30.34 296.191 31.12 295.211 31.12ZM296.751 42H293.671V32.34H296.751V42ZM308.603 42H305.523V36.42C305.523 35.24 304.903 34.82 303.943 34.82C303.023 34.82 302.423 35.32 302.063 35.76V42H298.983V32.34H302.063V33.52C302.643 32.84 303.783 32.1 305.403 32.1C307.603 32.1 308.603 33.38 308.603 35.16V42ZM310.579 44.48L311.919 42.28C312.659 43.08 313.739 43.4 314.859 43.4C315.879 43.4 317.319 42.98 317.319 41.18V40.44C316.519 41.38 315.559 41.84 314.459 41.84C312.099 41.84 310.199 40.22 310.199 36.96C310.199 33.78 312.039 32.1 314.459 32.1C315.539 32.1 316.539 32.52 317.319 33.48V32.34H320.379V41.14C320.379 45.08 317.259 45.92 314.859 45.92C313.199 45.92 311.819 45.5 310.579 44.48ZM317.319 38.26V35.68C316.939 35.16 316.119 34.82 315.479 34.82C314.259 34.82 313.359 35.56 313.359 36.96C313.359 38.38 314.259 39.12 315.479 39.12C316.119 39.12 316.939 38.78 317.319 38.26ZM333.453 42H327.833V28.66H333.433C337.633 28.66 340.653 31.18 340.653 35.32C340.653 39.46 337.633 42 333.453 42ZM331.273 31.66V39H333.433C335.773 39 337.133 37.3 337.133 35.32C337.133 33.26 335.893 31.66 333.453 31.66H331.273ZM341.644 37.16C341.644 34.36 343.764 32.1 346.784 32.1C349.644 32.1 351.724 34.2 351.724 37.48V38.14H344.844C345.024 39.04 345.864 39.86 347.304 39.86C348.164 39.86 349.124 39.52 349.664 39.04L350.964 40.96C350.004 41.82 348.404 42.24 346.924 42.24C343.944 42.24 341.644 40.3 341.644 37.16ZM346.784 34.48C345.444 34.48 344.924 35.44 344.804 36.14H348.784C348.704 35.46 348.204 34.48 346.784 34.48ZM352.421 40.76L353.701 38.64C354.421 39.28 355.961 39.92 357.101 39.92C358.021 39.92 358.401 39.62 358.401 39.2C358.401 38.7 357.741 38.52 356.741 38.36C355.101 38.08 352.781 37.74 352.781 35.28C352.781 33.58 354.241 32.1 356.921 32.1C358.541 32.1 359.921 32.62 360.961 33.38L359.781 35.42C359.201 34.86 358.101 34.36 356.941 34.36C356.221 34.36 355.721 34.6 355.721 35.02C355.721 35.46 356.241 35.62 357.261 35.8C358.901 36.08 361.341 36.48 361.341 39.04C361.341 40.88 359.721 42.24 356.941 42.24C355.221 42.24 353.441 41.66 352.421 40.76ZM364.469 31.12C363.489 31.12 362.709 30.34 362.709 29.36C362.709 28.38 363.489 27.6 364.469 27.6C365.449 27.6 366.229 28.38 366.229 29.36C366.229 30.34 365.449 31.12 364.469 31.12ZM366.009 42H362.929V32.34H366.009V42ZM367.981 44.48L369.321 42.28C370.061 43.08 371.141 43.4 372.261 43.4C373.281 43.4 374.721 42.98 374.721 41.18V40.44C373.921 41.38 372.961 41.84 371.861 41.84C369.501 41.84 367.601 40.22 367.601 36.96C367.601 33.78 369.441 32.1 371.861 32.1C372.941 32.1 373.941 32.52 374.721 33.48V32.34H377.781V41.14C377.781 45.08 374.661 45.92 372.261 45.92C370.601 45.92 369.221 45.5 367.981 44.48ZM374.721 38.26V35.68C374.341 35.16 373.521 34.82 372.881 34.82C371.661 34.82 370.761 35.56 370.761 36.96C370.761 38.38 371.661 39.12 372.881 39.12C373.521 39.12 374.341 38.78 374.721 38.26ZM389.658 42H386.578V36.42C386.578 35.24 385.958 34.82 384.998 34.82C384.078 34.82 383.478 35.32 383.118 35.76V42H380.038V32.34H383.118V33.52C383.698 32.84 384.838 32.1 386.458 32.1C388.658 32.1 389.658 33.38 389.658 35.16V42Z" fill="white"/>
<defs>
<clipPath id="clip0_2011_43">
<rect width="102" height="44.1372" fill="white"/>
</clipPath>
</defs>
</svg>
