<svg width="374" height="40" viewBox="0 0 374 40" fill="none" xmlns="http://www.w3.org/2000/svg">
<g clip-path="url(#clip0_2151_49)">
<path d="M46.6476 2.26778V39.4431C46.6476 39.7501 46.8975 40 47.2045 40H84.5202C85.0176 40 85.2651 39.3979 84.9129 39.048L47.5686 1.8846C47.2283 1.54665 46.6476 1.78702 46.6476 2.26778Z" fill="#FCCD0F"/>
<path d="M52.1382 1.88938L64.1476 13.8988C64.2499 14.0011 64.3856 14.0558 64.5284 14.0558H76.5711C76.8686 14.0558 77.1113 14.2986 77.1113 14.5961V26.6388C77.1113 26.7816 77.1685 26.9196 77.2684 27.0196L89.2778 39.029C89.6181 39.3693 90.1988 39.1289 90.1988 38.6482V1.50858C90.1988 1.21108 89.9561 0.968323 89.6586 0.968323H52.5166C52.0359 0.968323 51.7955 1.54904 52.1358 1.88938H52.1382Z" fill="#ED8023"/>
<path d="M0 2.26778V39.4431C0 39.7501 0.249898 40 0.556915 40H37.8726C38.37 40 38.6176 39.3979 38.2653 39.048L0.921052 1.8846C0.580715 1.54665 0 1.78702 0 2.26778Z" fill="#0E7C75"/>
<path d="M5.49055 1.88938L17.4999 13.8988C17.6023 14.0011 17.7379 14.0558 17.8807 14.0558H29.9234C30.2209 14.0558 30.4637 14.2986 30.4637 14.5961V26.6388C30.4637 26.7816 30.5208 26.9196 30.6208 27.0196L42.6301 39.029C42.9705 39.3693 43.5512 39.1289 43.5512 38.6482V1.50858C43.5512 1.21108 43.3084 0.968323 43.0109 0.968323H5.87135C5.3906 0.968323 5.15022 1.54904 5.49055 1.88938Z" fill="#4CAA4E"/>
</g>
<path d="M105.889 16H104.785L101.793 11.584H99.4413V16H98.5293V5.328H102.513C104.353 5.328 105.761 6.496 105.761 8.448C105.761 10.384 104.385 11.456 102.801 11.52L105.889 16ZM104.801 8.448C104.801 7.104 103.841 6.16 102.433 6.16H99.4413V10.752H102.433C103.841 10.752 104.801 9.792 104.801 8.448ZM113.429 16H112.597V15.088C111.909 15.84 111.045 16.192 109.973 16.192C108.645 16.192 107.269 15.28 107.269 13.616C107.269 11.936 108.629 11.056 109.973 11.056C111.045 11.056 111.925 11.408 112.597 12.16V10.592C112.597 9.44 111.669 8.816 110.517 8.816C109.557 8.816 108.805 9.152 108.101 9.952L107.637 9.376C108.437 8.512 109.333 8.08 110.613 8.08C112.181 8.08 113.429 8.832 113.429 10.56V16ZM112.597 14.48V12.784C112.053 12.08 111.189 11.712 110.261 11.712C108.981 11.712 108.149 12.528 108.149 13.632C108.149 14.72 108.981 15.536 110.261 15.536C111.189 15.536 112.053 15.184 112.597 14.48ZM122.077 16H121.245V10.768C121.245 9.28 120.493 8.832 119.373 8.832C118.381 8.832 117.357 9.456 116.861 10.16V16H116.029V8.272H116.861V9.44C117.421 8.768 118.525 8.08 119.645 8.08C121.213 8.08 122.077 8.848 122.077 10.592V16ZM124.685 17.968L125.165 17.328C125.837 18.128 126.573 18.416 127.725 18.416C129.133 18.416 130.365 17.712 130.365 15.936V14.72C129.821 15.504 128.829 16.16 127.677 16.16C125.629 16.16 124.221 14.608 124.221 12.128C124.221 9.68 125.629 8.08 127.677 8.08C128.781 8.08 129.741 8.64 130.365 9.52V8.272H131.213V15.92C131.213 18.288 129.613 19.136 127.725 19.136C126.429 19.136 125.597 18.896 124.685 17.968ZM130.365 14V10.24C129.917 9.488 128.893 8.832 127.821 8.832C126.109 8.832 125.117 10.256 125.117 12.128C125.117 14 126.109 15.408 127.821 15.408C128.893 15.408 129.917 14.752 130.365 14ZM139.538 16H138.706V15.088C138.018 15.84 137.154 16.192 136.082 16.192C134.754 16.192 133.378 15.28 133.378 13.616C133.378 11.936 134.738 11.056 136.082 11.056C137.154 11.056 138.034 11.408 138.706 12.16V10.592C138.706 9.44 137.778 8.816 136.626 8.816C135.666 8.816 134.914 9.152 134.21 9.952L133.746 9.376C134.546 8.512 135.442 8.08 136.722 8.08C138.29 8.08 139.538 8.832 139.538 10.56V16ZM138.706 14.48V12.784C138.162 12.08 137.298 11.712 136.37 11.712C135.09 11.712 134.258 12.528 134.258 13.632C134.258 14.72 135.09 15.536 136.37 15.536C137.298 15.536 138.162 15.184 138.706 14.48ZM155.095 16H154.071L152.999 13.376H147.319L146.247 16H145.223L149.591 5.328H150.727L155.095 16ZM152.711 12.544L150.151 6.224L147.607 12.544H152.711ZM162.514 16H161.682V14.864C161.042 15.568 160.018 16.192 158.898 16.192C157.314 16.192 156.466 15.456 156.466 13.712V8.272H157.298V13.52C157.298 15.024 158.05 15.44 159.17 15.44C160.162 15.44 161.17 14.848 161.682 14.16V8.272H162.514V16ZM170.851 16H170.019V15.088C169.331 15.84 168.467 16.192 167.395 16.192C166.067 16.192 164.691 15.28 164.691 13.616C164.691 11.936 166.051 11.056 167.395 11.056C168.467 11.056 169.347 11.408 170.019 12.16V10.592C170.019 9.44 169.091 8.816 167.939 8.816C166.979 8.816 166.227 9.152 165.523 9.952L165.059 9.376C165.859 8.512 166.755 8.08 168.035 8.08C169.603 8.08 170.851 8.832 170.851 10.56V16ZM170.019 14.48V12.784C169.475 12.08 168.611 11.712 167.683 11.712C166.403 11.712 165.571 12.528 165.571 13.632C165.571 14.72 166.403 15.536 167.683 15.536C168.611 15.536 169.475 15.184 170.019 14.48ZM179.498 16H178.666V10.736C178.666 9.248 177.914 8.832 176.794 8.832C175.802 8.832 174.778 9.456 174.282 10.16V16H173.45V5.328H174.282V9.44C174.842 8.768 175.946 8.08 177.066 8.08C178.634 8.08 179.498 8.816 179.498 10.56V16ZM187.835 16H187.003V15.088C186.315 15.84 185.451 16.192 184.379 16.192C183.051 16.192 181.675 15.28 181.675 13.616C181.675 11.936 183.035 11.056 184.379 11.056C185.451 11.056 186.331 11.408 187.003 12.16V10.592C187.003 9.44 186.075 8.816 184.923 8.816C183.963 8.816 183.211 9.152 182.507 9.952L182.043 9.376C182.843 8.512 183.739 8.08 185.019 8.08C186.587 8.08 187.835 8.832 187.835 10.56V16ZM187.003 14.48V12.784C186.459 12.08 185.595 11.712 184.667 11.712C183.387 11.712 182.555 12.528 182.555 13.632C182.555 14.72 183.387 15.536 184.667 15.536C185.595 15.536 186.459 15.184 187.003 14.48ZM203.391 16H202.367L201.295 13.376H195.615L194.543 16H193.519L197.887 5.328H199.023L203.391 16ZM201.007 12.544L198.447 6.224L195.903 12.544H201.007ZM211.415 16H210.295L207.207 12.32L205.767 13.68V16H204.935V5.328H205.767V12.688L210.327 8.272H211.431L207.831 11.76L211.415 16ZM215.918 16.192C213.662 16.192 212.206 14.384 212.206 12.128C212.206 9.872 213.662 8.08 215.918 8.08C218.206 8.08 219.646 9.872 219.646 12.128C219.646 14.384 218.206 16.192 215.918 16.192ZM215.918 15.44C217.742 15.44 218.75 13.856 218.75 12.128C218.75 10.416 217.742 8.832 215.918 8.832C214.126 8.832 213.102 10.416 213.102 12.128C213.102 13.856 214.126 15.44 215.918 15.44ZM105.201 35H98.1613V24.328H100.913V32.6H105.201V35ZM105.976 31.128C105.976 28.888 107.672 27.08 110.088 27.08C112.376 27.08 114.04 28.76 114.04 31.384V31.912H108.536C108.68 32.632 109.352 33.288 110.504 33.288C111.192 33.288 111.96 33.016 112.392 32.632L113.432 34.168C112.664 34.856 111.384 35.192 110.2 35.192C107.816 35.192 105.976 33.64 105.976 31.128ZM110.088 28.984C109.016 28.984 108.6 29.752 108.504 30.312H111.688C111.624 29.768 111.224 28.984 110.088 28.984ZM122.278 35H119.814V34.232C119.334 34.808 118.406 35.192 117.414 35.192C116.23 35.192 114.758 34.392 114.758 32.648C114.758 30.776 116.23 30.216 117.414 30.216C118.438 30.216 119.35 30.536 119.814 31.112V30.136C119.814 29.464 119.238 29.016 118.246 29.016C117.478 29.016 116.678 29.304 116.054 29.832L115.174 28.28C116.166 27.432 117.494 27.08 118.678 27.08C120.534 27.08 122.278 27.768 122.278 30.168V35ZM119.814 33.016V32.328C119.558 31.976 118.982 31.784 118.438 31.784C117.782 31.784 117.206 32.072 117.206 32.68C117.206 33.288 117.782 33.576 118.438 33.576C118.982 33.576 119.558 33.384 119.814 33.016ZM126.53 35H124.066V27.272H126.53V28.248C127.042 27.624 128.018 27.08 128.946 27.08V29.464C128.802 29.416 128.594 29.384 128.338 29.384C127.698 29.384 126.85 29.656 126.53 30.104V35ZM137.762 35H135.298V30.536C135.298 29.592 134.802 29.256 134.034 29.256C133.298 29.256 132.818 29.656 132.53 30.008V35H130.066V27.272H132.53V28.216C132.994 27.672 133.906 27.08 135.202 27.08C136.962 27.08 137.762 28.104 137.762 29.528V35ZM140.782 26.296C139.998 26.296 139.374 25.672 139.374 24.888C139.374 24.104 139.998 23.48 140.782 23.48C141.566 23.48 142.19 24.104 142.19 24.888C142.19 25.672 141.566 26.296 140.782 26.296ZM142.014 35H139.55V27.272H142.014V35ZM151.496 35H149.032V30.536C149.032 29.592 148.536 29.256 147.768 29.256C147.032 29.256 146.552 29.656 146.264 30.008V35H143.8V27.272H146.264V28.216C146.728 27.672 147.64 27.08 148.936 27.08C150.696 27.08 151.496 28.104 151.496 29.528V35ZM153.077 36.984L154.149 35.224C154.741 35.864 155.605 36.12 156.501 36.12C157.317 36.12 158.469 35.784 158.469 34.344V33.752C157.829 34.504 157.061 34.872 156.181 34.872C154.293 34.872 152.773 33.576 152.773 30.968C152.773 28.424 154.245 27.08 156.181 27.08C157.045 27.08 157.845 27.416 158.469 28.184V27.272H160.917V34.312C160.917 37.464 158.421 38.136 156.501 38.136C155.173 38.136 154.069 37.8 153.077 36.984ZM158.469 32.008V29.944C158.165 29.528 157.509 29.256 156.997 29.256C156.021 29.256 155.301 29.848 155.301 30.968C155.301 32.104 156.021 32.696 156.997 32.696C157.509 32.696 158.165 32.424 158.469 32.008ZM173.84 35H171.376V34.232C170.896 34.808 169.968 35.192 168.976 35.192C167.792 35.192 166.32 34.392 166.32 32.648C166.32 30.776 167.792 30.216 168.976 30.216C170 30.216 170.912 30.536 171.376 31.112V30.136C171.376 29.464 170.8 29.016 169.808 29.016C169.04 29.016 168.24 29.304 167.616 29.832L166.736 28.28C167.728 27.432 169.056 27.08 170.24 27.08C172.096 27.08 173.84 27.768 173.84 30.168V35ZM171.376 33.016V32.328C171.12 31.976 170.544 31.784 170 31.784C169.344 31.784 168.768 32.072 168.768 32.68C168.768 33.288 169.344 33.576 170 33.576C170.544 33.576 171.12 33.384 171.376 33.016ZM183.325 35H180.861V30.536C180.861 29.592 180.365 29.256 179.597 29.256C178.861 29.256 178.381 29.656 178.093 30.008V35H175.629V27.272H178.093V28.216C178.557 27.672 179.469 27.08 180.765 27.08C182.525 27.08 183.325 28.104 183.325 29.528V35ZM192.761 35H190.313V34.104C189.673 34.84 188.889 35.192 188.025 35.192C186.121 35.192 184.601 33.752 184.601 31.128C184.601 28.6 186.089 27.08 188.025 27.08C188.873 27.08 189.689 27.416 190.313 28.184V24.328H192.761V35ZM190.313 32.312V29.944C189.993 29.528 189.353 29.256 188.825 29.256C187.849 29.256 187.129 29.976 187.129 31.128C187.129 32.28 187.849 33.016 188.825 33.016C189.353 33.016 189.993 32.728 190.313 32.312ZM203.86 35H201.108V26.728H198.116V24.328H206.836V26.728H203.86V35ZM206.148 31.128C206.148 28.888 207.844 27.08 210.26 27.08C212.548 27.08 214.212 28.76 214.212 31.384V31.912H208.708C208.852 32.632 209.524 33.288 210.676 33.288C211.364 33.288 212.132 33.016 212.564 32.632L213.604 34.168C212.836 34.856 211.556 35.192 210.372 35.192C207.988 35.192 206.148 33.64 206.148 31.128ZM210.26 28.984C209.188 28.984 208.772 29.752 208.676 30.312H211.86C211.796 29.768 211.396 28.984 210.26 28.984ZM222.449 35H219.985V34.232C219.505 34.808 218.577 35.192 217.585 35.192C216.401 35.192 214.929 34.392 214.929 32.648C214.929 30.776 216.401 30.216 217.585 30.216C218.609 30.216 219.521 30.536 219.985 31.112V30.136C219.985 29.464 219.409 29.016 218.417 29.016C217.649 29.016 216.849 29.304 216.225 29.832L215.345 28.28C216.337 27.432 217.665 27.08 218.849 27.08C220.705 27.08 222.449 27.768 222.449 30.168V35ZM219.985 33.016V32.328C219.729 31.976 219.153 31.784 218.609 31.784C217.953 31.784 217.377 32.072 217.377 32.68C217.377 33.288 217.953 33.576 218.609 33.576C219.153 33.576 219.729 33.384 219.985 33.016ZM223.726 31.128C223.726 28.712 225.534 27.08 227.95 27.08C229.614 27.08 230.654 27.816 231.118 28.504L229.518 29.992C229.214 29.544 228.718 29.256 228.062 29.256C227.038 29.256 226.254 29.96 226.254 31.128C226.254 32.296 227.038 33.016 228.062 33.016C228.718 33.016 229.214 32.696 229.518 32.264L231.118 33.768C230.654 34.44 229.614 35.192 227.95 35.192C225.534 35.192 223.726 33.56 223.726 31.128ZM239.95 35H237.486V30.504C237.486 29.56 236.99 29.256 236.206 29.256C235.486 29.256 235.006 29.656 234.718 30.008V35H232.254V24.328H234.718V28.216C235.182 27.672 236.094 27.08 237.39 27.08C239.15 27.08 239.95 28.072 239.95 29.496V35ZM242.97 26.296C242.186 26.296 241.562 25.672 241.562 24.888C241.562 24.104 242.186 23.48 242.97 23.48C243.754 23.48 244.378 24.104 244.378 24.888C244.378 25.672 243.754 26.296 242.97 26.296ZM244.202 35H241.738V27.272H244.202V35ZM253.684 35H251.22V30.536C251.22 29.592 250.724 29.256 249.956 29.256C249.22 29.256 248.74 29.656 248.452 30.008V35H245.988V27.272H248.452V28.216C248.916 27.672 249.828 27.08 251.124 27.08C252.884 27.08 253.684 28.104 253.684 29.528V35ZM255.264 36.984L256.336 35.224C256.928 35.864 257.792 36.12 258.688 36.12C259.504 36.12 260.656 35.784 260.656 34.344V33.752C260.016 34.504 259.248 34.872 258.368 34.872C256.48 34.872 254.96 33.576 254.96 30.968C254.96 28.424 256.432 27.08 258.368 27.08C259.232 27.08 260.032 27.416 260.656 28.184V27.272H263.104V34.312C263.104 37.464 260.608 38.136 258.688 38.136C257.36 38.136 256.256 37.8 255.264 36.984ZM260.656 32.008V29.944C260.352 29.528 259.696 29.256 259.184 29.256C258.208 29.256 257.488 29.848 257.488 30.968C257.488 32.104 258.208 32.696 259.184 32.696C259.696 32.696 260.352 32.424 260.656 32.008ZM273.564 35H269.068V24.328H273.548C276.908 24.328 279.324 26.344 279.324 29.656C279.324 32.968 276.908 35 273.564 35ZM271.82 26.728V32.6H273.548C275.42 32.6 276.508 31.24 276.508 29.656C276.508 28.008 275.516 26.728 273.564 26.728H271.82ZM280.117 31.128C280.117 28.888 281.813 27.08 284.229 27.08C286.517 27.08 288.181 28.76 288.181 31.384V31.912H282.677C282.821 32.632 283.493 33.288 284.645 33.288C285.333 33.288 286.101 33.016 286.533 32.632L287.573 34.168C286.805 34.856 285.525 35.192 284.341 35.192C281.957 35.192 280.117 33.64 280.117 31.128ZM284.229 28.984C283.157 28.984 282.741 29.752 282.645 30.312H285.829C285.765 29.768 285.365 28.984 284.229 28.984ZM288.738 34.008L289.762 32.312C290.338 32.824 291.57 33.336 292.482 33.336C293.218 33.336 293.522 33.096 293.522 32.76C293.522 32.36 292.994 32.216 292.194 32.088C290.882 31.864 289.026 31.592 289.026 29.624C289.026 28.264 290.194 27.08 292.338 27.08C293.634 27.08 294.738 27.496 295.57 28.104L294.626 29.736C294.162 29.288 293.282 28.888 292.354 28.888C291.778 28.888 291.378 29.08 291.378 29.416C291.378 29.768 291.794 29.896 292.61 30.04C293.922 30.264 295.874 30.584 295.874 32.632C295.874 34.104 294.578 35.192 292.354 35.192C290.978 35.192 289.554 34.728 288.738 34.008ZM298.376 26.296C297.592 26.296 296.968 25.672 296.968 24.888C296.968 24.104 297.592 23.48 298.376 23.48C299.16 23.48 299.784 24.104 299.784 24.888C299.784 25.672 299.16 26.296 298.376 26.296ZM299.608 35H297.144V27.272H299.608V35ZM301.186 36.984L302.258 35.224C302.85 35.864 303.714 36.12 304.61 36.12C305.426 36.12 306.578 35.784 306.578 34.344V33.752C305.938 34.504 305.17 34.872 304.29 34.872C302.402 34.872 300.882 33.576 300.882 30.968C300.882 28.424 302.354 27.08 304.29 27.08C305.154 27.08 305.954 27.416 306.578 28.184V27.272H309.026V34.312C309.026 37.464 306.53 38.136 304.61 38.136C303.282 38.136 302.178 37.8 301.186 36.984ZM306.578 32.008V29.944C306.274 29.528 305.618 29.256 305.106 29.256C304.13 29.256 303.41 29.848 303.41 30.968C303.41 32.104 304.13 32.696 305.106 32.696C305.618 32.696 306.274 32.424 306.578 32.008ZM318.528 35H316.064V30.536C316.064 29.592 315.568 29.256 314.8 29.256C314.064 29.256 313.584 29.656 313.296 30.008V35H310.832V27.272H313.296V28.216C313.76 27.672 314.672 27.08 315.968 27.08C317.728 27.08 318.528 28.104 318.528 29.528V35ZM329.61 35H326.858V26.728H323.866V24.328H332.586V26.728H329.61V35ZM331.898 31.128C331.898 28.888 333.594 27.08 336.01 27.08C338.298 27.08 339.962 28.76 339.962 31.384V31.912H334.458C334.602 32.632 335.274 33.288 336.426 33.288C337.114 33.288 337.882 33.016 338.314 32.632L339.354 34.168C338.586 34.856 337.306 35.192 336.122 35.192C333.738 35.192 331.898 33.64 331.898 31.128ZM336.01 28.984C334.938 28.984 334.522 29.752 334.426 30.312H337.61C337.546 29.768 337.146 28.984 336.01 28.984ZM348.199 35H345.735V34.232C345.255 34.808 344.327 35.192 343.335 35.192C342.151 35.192 340.679 34.392 340.679 32.648C340.679 30.776 342.151 30.216 343.335 30.216C344.359 30.216 345.271 30.536 345.735 31.112V30.136C345.735 29.464 345.159 29.016 344.167 29.016C343.399 29.016 342.599 29.304 341.975 29.832L341.095 28.28C342.087 27.432 343.415 27.08 344.599 27.08C346.455 27.08 348.199 27.768 348.199 30.168V35ZM345.735 33.016V32.328C345.479 31.976 344.903 31.784 344.359 31.784C343.703 31.784 343.127 32.072 343.127 32.68C343.127 33.288 343.703 33.576 344.359 33.576C344.903 33.576 345.479 33.384 345.735 33.016ZM362.18 35H359.732V30.296C359.732 29.704 359.444 29.256 358.708 29.256C358.036 29.256 357.556 29.688 357.316 30.008V35H354.852V30.296C354.852 29.704 354.58 29.256 353.828 29.256C353.172 29.256 352.708 29.688 352.452 30.008V35H349.988V27.272H352.452V28.216C352.788 27.768 353.78 27.08 354.996 27.08C356.1 27.08 356.868 27.544 357.188 28.456C357.636 27.784 358.644 27.08 359.86 27.08C361.284 27.08 362.18 27.816 362.18 29.4V35Z" fill="white"/>
<defs>
<clipPath id="clip0_2151_49">
<rect width="90.2013" height="39.0317" fill="white" transform="translate(0 0.968323)"/>
</clipPath>
</defs>
</svg>
